PathFileType	4	(X/Y/Z)	/Users/itak/Documents/Research/Walk-IL/dataset/trc/00426_00167.trc
DataRate	CameraRate	NumFrames	NumMarkers	Units	OrigDataRate	OrigDataStartFrame	OrigNumFrames
100.000000	100.000000	4	53	mm	100.000000	150	602
Frame#	Time	RPSI			LPSI			L3			STRN			T10			C7			CLAV			RBAK			LBAK			LSHO			LUPA			LAEL			LAOL			LWTS			LWPS			LFRA			LIFD			LHPS			LHTS			RSHO			RUPA			RAEL			RAOL			RWTS			RWPS			RFRA			RIFD			RHTS			RHPS			RBHD			LFHD			RFHD			LBHD			LHIP			RHIP			RASI			LASI			LKNE			LTHI			LANK			LTIP			LTOE			LMT1			LMT5			LHEE			RKNE			RTHI			RANK			RTIP			RTOE			RMT1			RMT5			RHEE			
		X1	Y1	Z1	X2	Y2	Z2	X3	Y3	Z3	X4	Y4	Z4	X5	Y5	Z5	X6	Y6	Z6	X7	Y7	Z7	X8	Y8	Z8	X9	Y9	Z9	X10	Y10	Z10	X11	Y11	Z11	X12	Y12	Z12	X13	Y13	Z13	X14	Y14	Z14	X15	Y15	Z15	X16	Y16	Z16	X17	Y17	Z17	X18	Y18	Z18	X19	Y19	Z19	X20	Y20	Z20	X21	Y21	Z21	X22	Y22	Z22	X23	Y23	Z23	X24	Y24	Z24	X25	Y25	Z25	X26	Y26	Z26	X27	Y27	Z27	X28	Y28	Z28	X29	Y29	Z29	X30	Y30	Z30	X31	Y31	Z31	X32	Y32	Z32	X33	Y33	Z33	X34	Y34	Z34	X35	Y35	Z35	X36	Y36	Z36	X37	Y37	Z37	X38	Y38	Z38	X39	Y39	Z39	X40	Y40	Z40	X41	Y41	Z41	X42	Y42	Z42	X43	Y43	Z43	X44	Y44	Z44	X45	Y45	Z45	X46	Y46	Z46	X47	Y47	Z47	X48	Y48	Z48	X49	Y49	Z49	X50	Y50	Z50	X51	Y51	Z51	X52	Y52	Z52	X53	Y53	Z53	

151	1.5	-1091.601318359375	942.1920166015625	-483.099853515625	-1018.625122070312	946.51806640625	-604.80517578125	-1047.375610351562	1050.061401367188	-533.923583984375	-801.00048828125	1230.821044921875	-396.631103515625	-1050.153442382812	1174.248168945312	-547.1294555664062	-990.9270629882812	1438.25	-493.0939331054688	-829.0928344726562	1346.153198242188	-413.3075256347656	-1097.305053710938	1319.605224609375	-449.7868347167969	-965.8062133789062	1396.518676757812	-598.1015625	-832.3643798828125	1411.543823242188	-607.6874389648438	-787.5324096679688	1295.253051757812	-700.8065185546875	-758.85205078125	1076.969482421875	-722.05322265625	-862.2488403320312	1065.954711914062	-714.467041015625	-727.7394409179688	867.426025390625	-653.1318969726562	-734.8359985351562	858.5900268554688	-726.7713012695312	-740.7689208984375	988.4744262695312	-723.7555541992188	-727.3064575195312	699.4140625	-670.3463134765625	-732.67333984375	778.7062377929688	-729.0669555664062	-714.9407958984375	778.1558227539062	-660.1621704101562	-1016.959045410156	1397.244873046875	-320.5021362304688	-1076.07421875	1335.80712890625	-270.8511352539062	-1130.655151367188	1054.311401367188	-230.2453918457031	-1149.187133789062	1040.870483398438	-294.8310852050781	-1041.664306640625	844.6236572265625	-208.1746063232422	-1128.84912109375	835.7833251953125	-203.2920989990234	-1138.537841796875	996.3523559570312	-221.6839752197266	-1057.07666015625	686.6658935546875	-202.0925903320312	-1044.952514648438	745.0851440429688	-190.6026153564453	-1120.171630859375	747.7269897460938	-196.6667633056641	-972.839111328125	1625.4345703125	-375.5874328613281	-776.4285278320312	1651.027709960938	-437.73291015625	-845.5812377929688	1649.870971679688	-326.17626953125	-892.9024658203125	1631.215698242188	-534.8031616210938	-848.2418212890625	837.8349609375	-640.0186767578125	-1045.51025390625	858.4758911132812	-288.37548828125	-931.5213012695312	904.7941284179688	-312.2002868652344	-795.4832763671875	876.7555541992188	-525.8087158203125	-910.481201171875	415.5859375	-595.1929931640625	-859.9375610351562	566.9805297851562	-601.7935791015625	-1063.784545898438	37.77055740356445	-653.3347778320312	-950.6954956054688	262.2351379394531	-612.642822265625	-917.344970703125	44.24710845947266	-472.3015747070312	-994.4710693359375	45.93815612792969	-488.7242431640625	-933.0475463867188	47.732421875	-583.4503784179688	-1137.951904296875	38.9636116027832	-643.153076171875	-880.468994140625	504.0620422363281	-201.3538513183594	-966.8860473632812	748.9619140625	-235.0608367919922	-906.6307373046875	71.48775482177734	-188.1693420410156	-888.1934204101562	356.8984985351562	-176.3699798583984	-699.513671875	93.49832916259766	-119.9827880859375	-735.1339111328125	92.64549255371094	-184.3358001708984	-803.6869506835938	83.91251373291016	-104.2825164794922	-938.6190795898438	57.58060455322266	-262.178466796875	
152	1.51	-1087.759765625	940.8639526367188	-479.7406005859375	-1015.241455078125	945.3270874023438	-601.5999145507812	-1043.722900390625	1048.827514648438	-530.734130859375	-796.9931030273438	1229.437377929688	-393.5426025390625	-1046.326293945312	1172.999145507812	-543.9374389648438	-986.88916015625	1436.903686523438	-489.8493957519531	-825.0648803710938	1344.791625976562	-410.1459350585938	-1093.290161132812	1318.283813476562	-446.5947875976562	-961.7167358398438	1395.20947265625	-594.8837890625	-828.3595581054688	1410.210327148438	-604.493408203125	-783.4872436523438	1293.905029296875	-697.5755615234375	-754.6857299804688	1075.608032226562	-718.7249145507812	-858.155517578125	1064.590209960938	-711.2642822265625	-723.5494384765625	866.1875	-649.476806640625	-730.4879760742188	857.2451171875	-723.0714721679688	-736.5344848632812	987.1199951171875	-720.2884521484375	-722.8350830078125	698.1656494140625	-666.4205932617188	-728.4663696289062	777.3508911132812	-725.350830078125	-710.6259155273438	776.9270629882812	-656.3448486328125	-1012.893615722656	1395.782958984375	-317.2789916992188	-1072.038940429688	1334.318115234375	-267.7151794433594	-1127.277465820312	1052.951293945312	-227.6307525634766	-1145.766845703125	1039.837768554688	-292.3121643066406	-1039.690063476562	842.5885009765625	-206.1508483886719	-1126.951782226562	834.3359985351562	-201.4092712402344	-1135.524658203125	995.0250244140625	-219.2850494384766	-1056.239135742188	684.7244873046875	-200.6882781982422	-1043.705078125	742.998046875	-188.9739227294922	-1118.931396484375	746.2262573242188	-195.0606079101562	-969.1531372070312	1623.85302734375	-372.3564758300781	-772.7919311523438	1649.966674804688	-434.3846740722656	-841.99365234375	1648.642578125	-322.8851013183594	-889.14111328125	1629.814331054688	-531.5322265625	-844.96728515625	836.8326416015625	-637.3843383789062	-1041.255126953125	857.1203002929688	-285.221923828125	-927.1837768554688	903.5806274414062	-309.2009582519531	-791.8497924804688	875.671630859375	-523.2943115234375	-907.8336791992188	414.5892028808594	-593.3248901367188	-856.939697265625	566.0435180664062	-599.5192260742188	-1063.761962890625	37.88439559936523	-653.2283935546875	-949.0929565429688	261.518310546875	-611.4755859375	-916.9368896484375	44.08675003051758	-472.3392639160156	-994.2437744140625	45.95141220092773	-488.7076721191406	-932.782958984375	47.47920227050781	-583.5139770507812	-1137.942016601562	39.31132125854492	-643.0060424804688	-876.977294921875	501.8123474121094	-199.0166931152344	-962.9533081054688	747.4071655273438	-232.1996002197266	-891.6436767578125	68.867431640625	-178.0155334472656	-880.9049072265625	355.0699768066406	-171.5009002685547	-684.61572265625	96.82463836669922	-111.7290878295898	-720.6992797851562	94.25996398925781	-175.8041534423828	-788.397216796875	84.79625701904297	-95.09716033935547	-923.8108520507812	53.24161911010742	-251.6522369384766	
153	1.52	-1083.848754882812	939.5040893554688	-476.2831420898438	-1011.780700683594	944.0939331054688	-598.3031005859375	-1039.990844726562	1047.554321289062	-527.3878173828125	-792.9004516601562	1227.99609375	-390.3389587402344	-1042.426513671875	1171.709594726562	-540.5877075195312	-982.7703247070312	1435.5048828125	-486.4496154785156	-820.9492797851562	1343.371459960938	-406.8624267578125	-1089.188842773438	1316.911010742188	-443.2413024902344	-957.5504150390625	1393.835205078125	-591.5095825195312	-824.3031005859375	1408.821533203125	-601.1751098632812	-779.4016723632812	1292.503540039062	-694.226806640625	-750.4475708007812	1074.203979492188	-715.290771484375	-853.98388671875	1063.154052734375	-707.9763793945312	-719.273681640625	864.91748046875	-645.6904907226562	-726.0314331054688	855.8517456054688	-719.2355346679688	-732.2142944335938	985.7239379882812	-716.7056884765625	-718.2278442382812	696.8847045898438	-662.3220825195312	-724.142333984375	775.946044921875	-721.4813232421875	-706.221435546875	775.6573486328125	-652.3633422851562	-1008.7294921875	1394.272583007812	-313.9028930664062	-1067.899780273438	1332.778564453125	-264.40771484375	-1123.735229492188	1051.529174804688	-224.8539581298828	-1142.18603515625	1038.747802734375	-289.6263427734375	-1037.540283203125	840.5049438476562	-203.9915618896484	-1124.87841796875	832.8414916992188	-199.3706512451172	-1132.3349609375	993.6451416015625	-216.7332458496094	-1055.230590820312	682.7439575195312	-199.1560668945312	-1042.26806640625	740.8736572265625	-187.2034149169922	-1117.511108398438	744.6870727539062	-193.3113708496094	-965.3622436523438	1622.228271484375	-368.9746704101562	-769.0416870117188	1648.821533203125	-430.8798522949219	-838.2799072265625	1647.335205078125	-319.4423828125	-885.2743530273438	1628.37255859375	-528.106201171875	-841.6240234375	835.7918090820312	-634.6519165039062	-1036.938720703125	855.7067260742188	-281.9961242675781	-922.7720336914062	902.2885131835938	-306.1031494140625	-788.1361083984375	874.5321044921875	-520.6666870117188	-905.0968627929688	413.5397644042969	-591.3600463867188	-853.8281860351562	565.0540771484375	-597.14501953125	-1063.743896484375	38.00007629394531	-653.1199951171875	-947.4551391601562	260.7523803710938	-610.2586059570312	-916.558349609375	43.90249633789062	-472.3454895019531	-994.0330810546875	45.96133804321289	-488.6803283691406	-932.5352172851562	47.23592376708984	-583.561279296875	-1137.9375	39.69779586791992	-642.8629760742188	-873.5803833007812	499.4855041503906	-196.6034088134766	-959.0824584960938	745.7793579101562	-229.2309265136719	-876.6180419921875	66.57647705078125	-168.0232696533203	-873.67919921875	353.2885437011719	-166.6607666015625	-669.8436279296875	100.4475936889648	-103.7109069824219	-706.3550415039062	96.17624664306641	-167.4758911132812	-773.1651611328125	85.96052551269531	-86.120849609375	-908.9122924804688	49.26678085327148	-241.2909393310547	
154	1.53	-1079.874267578125	938.1114501953125	-472.7308959960938	-1008.227478027344	942.8099975585938	-594.9169311523438	-1036.18115234375	1046.240966796875	-523.8888549804688	-788.7251586914062	1226.497192382812	-387.0207214355469	-1038.463989257812	1170.383911132812	-537.0784912109375	-978.5730590820312	1434.056274414062	-482.8901672363281	-816.7495727539062	1341.894897460938	-403.451171875	-1085.001220703125	1315.490600585938	-439.7239685058594	-953.3129272460938	1392.40234375	-587.9755249023438	-820.1928100585938	1407.380981445312	-597.7272338867188	-775.274169921875	1291.053344726562	-690.755859375	-746.143798828125	1072.7607421875	-711.7454833984375	-849.7290649414062	1061.649169921875	-704.5942993164062	-714.9130859375	863.619384765625	-641.7778930664062	-721.4784545898438	854.4144897460938	-715.2725219726562	-727.817138671875	984.2892456054688	-713.0051879882812	-713.4968872070312	695.5743408203125	-658.0650024414062	-719.6995239257812	774.495361328125	-717.4630737304688	-701.7174682617188	774.3547973632812	-648.228515625	-1004.470825195312	1392.716064453125	-310.3667297363281	-1063.66162109375	1331.193115234375	-260.9269104003906	-1120.041137695312	1050.049072265625	-221.9182434082031	-1138.448364257812	1037.598754882812	-286.7784423828125	-1035.207885742188	838.3818359375	-201.6884002685547	-1122.620239257812	831.3031005859375	-197.1724548339844	-1128.974609375	992.2149047851562	-214.0307312011719	-1054.0283203125	680.7335205078125	-197.4935302734375	-1040.638793945312	738.7152709960938	-185.2884826660156	-1115.8935546875	743.1087646484375	-191.4215087890625	-961.4683837890625	1620.567504882812	-365.4426879882812	-765.1781005859375	1647.590087890625	-427.2222290039062	-834.4386596679688	1645.950927734375	-315.849365234375	-881.3051147460938	1626.893920898438	-524.5257568359375	-838.2000122070312	834.7130737304688	-631.8179321289062	-1032.5693359375	854.2391967773438	-278.7005615234375	-918.29736328125	900.9242553710938	-302.901611328125	-784.3457641601562	873.330810546875	-517.9168701171875	-902.2953491210938	412.4437866210938	-589.3101196289062	-850.6116943359375	564.01513671875	-594.6726684570312	-1063.73291015625	38.12804794311523	-653.010986328125	-945.7794799804688	259.9501647949219	-609.0018920898438	-916.2156372070312	43.70515823364258	-472.3197937011719	-993.845947265625	45.96919250488281	-488.6415710449219	-932.3064575195312	47.00466537475586	-583.5941772460938	-1137.930541992188	40.12631225585938	-642.7326049804688	-870.2464599609375	497.1159362792969	-194.1007080078125	-955.2645874023438	744.0908813476562	-226.1480407714844	-861.6246337890625	64.62483978271484	-158.2242889404297	-866.5270385742188	351.5788269042969	-161.8484039306641	-655.2571411132812	104.3354415893555	-95.96364593505859	-692.1724853515625	98.37823486328125	-159.3800048828125	-758.052490234375	87.38967895507812	-77.38191986083984	-894.0084838867188	45.68911361694336	-231.1167144775391	
